<?xml version="1.0" standalone="no"?>
<!DOCTYPE svg PUBLIC "-//W3C//DTD SVG 20010904//EN"
 "http://www.w3.org/TR/2001/REC-SVG-20010904/DTD/svg10.dtd">
<svg version="1.0" xmlns="http://www.w3.org/2000/svg"
 width="1000.000000pt" height="1000.000000pt" viewBox="0 0 1000.000000 1000.000000"
 preserveAspectRatio="xMidYMid meet">
<metadata>
Created by potrace 1.14, written by Peter Selinger 2001-2017
</metadata>
<g transform="translate(0.000000,1000.000000) scale(0.100000,-0.100000)"
fill="#000000" stroke="none">
<path d="M767 9989 c-145 -21 -288 -82 -413 -177 -158 -119 -265 -280 -326
-487 l-23 -80 -3 -4175 c-2 -2939 0 -4203 8 -4270 13 -114 57 -249 113 -350
58 -103 224 -269 327 -327 101 -56 236 -100 350 -113 67 -8 1331 -10 4270 -8
l4175 3 80 23 c330 96 558 326 647 653 l23 84 0 4235 c0 4004 -1 4239 -18
4303 -85 332 -323 575 -655 670 l-77 22 -4210 1 c-2316 1 -4236 -2 -4268 -7z
m475 -3536 c17 -15 18 -65 18 -1161 0 -1052 1 -1147 17 -1164 15 -17 51 -18
719 -18 625 0 704 -2 718 -16 14 -13 16 -52 16 -273 0 -206 -3 -261 -14 -277
-14 -19 -38 -19 -1037 -22 -906 -2 -1025 -1 -1046 13 l-23 15 0 1445 c0 1299
2 1445 16 1459 13 14 55 16 306 16 257 0 294 -2 310 -17z m2502 -25 c22 -24
331 -424 685 -890 353 -467 647 -848 652 -848 5 0 9 362 9 868 0 769 2 870 16
890 15 22 17 22 309 22 292 0 294 0 309 -22 14 -20 16 -174 16 -1451 l0 -1428
-25 -24 -24 -25 -231 0 c-172 0 -239 3 -263 14 -26 10 -179 206 -726 924 -382
501 -698 909 -703 906 -4 -3 -8 -412 -8 -908 0 -828 -1 -905 -17 -917 -12 -11
-77 -15 -296 -17 -240 -2 -282 -1 -303 13 l-24 15 0 1445 c0 1299 2 1445 16
1459 13 14 54 16 291 16 l276 0 41 -42z m3389 24 c18 -11 150 -216 387 -596
197 -319 366 -586 375 -595 12 -12 17 -13 27 -3 7 7 177 277 378 599 247 398
373 591 390 600 19 9 107 13 342 13 275 0 319 -2 332 -16 14 -14 16 -160 16
-1459 l0 -1444 -22 -15 c-19 -14 -65 -16 -298 -16 -233 0 -279 2 -298 16 l-22
15 0 929 c0 511 -3 931 -8 934 -4 2 -185 -266 -402 -596 -217 -329 -402 -606
-412 -615 -21 -19 9 -62 -448 632 -205 311 -376 565 -381 565 -5 0 -9 -396 -9
-918 0 -777 -2 -921 -14 -938 -14 -18 -31 -19 -296 -22 -243 -2 -285 -1 -306
13 l-24 15 0 1450 c0 1369 1 1450 18 1459 10 7 137 10 332 11 283 0 318 -2
343 -18z"/>
</g>
</svg>
